<?xml version="1.0" encoding="UTF-8"?><svg id="Layer_2" xmlns="http://www.w3.org/2000/svg" viewBox="0 0 31 17.89"><defs><style>.cls-1{fill:#ffc240;}.cls-2{fill:#333;}</style></defs><g id="Layer_1-2"><g><path class="cls-2" d="M8.87,17.89c-1.23,0-2.38-.22-3.46-.66s-2.02-1.06-2.81-1.85c-.79-.79-1.42-1.74-1.89-2.83-.47-1.09-.7-2.27-.7-3.55v-.05c0-1.24,.23-2.41,.69-3.5,.46-1.09,1.09-2.04,1.89-2.85,.8-.81,1.76-1.45,2.86-1.9,1.11-.46,2.31-.69,3.62-.69,.88,0,1.69,.09,2.41,.26,.72,.17,1.38,.42,1.98,.74,.6,.32,1.14,.7,1.62,1.14s.91,.93,1.29,1.45l-3.59,2.78c-.49-.62-1.03-1.11-1.62-1.47-.59-.36-1.3-.54-2.14-.54-.61,0-1.16,.12-1.66,.36-.5,.24-.93,.56-1.29,.97s-.64,.89-.85,1.45c-.21,.56-.31,1.15-.31,1.77v.05c0,.64,.1,1.24,.31,1.81s.49,1.05,.85,1.46,.79,.73,1.29,.97c.5,.24,1.05,.36,1.66,.36,.44,0,.85-.05,1.22-.15,.37-.1,.7-.24,1.01-.43,.3-.19,.59-.41,.86-.66,.27-.25,.54-.54,.8-.85l3.59,2.55c-.41,.56-.86,1.07-1.34,1.55-.48,.48-1.03,.88-1.65,1.23s-1.3,.61-2.06,.81c-.76,.2-1.62,.29-2.57,.29Z"/><path class="cls-1" d="M24.05,17.84c-1.54,0-3-.24-4.38-.72-1.38-.48-2.61-1.2-3.67-2.15l2.65-3.18c1.72,1.38,3.58,2.06,5.58,2.06,.64,0,1.13-.1,1.46-.31s.5-.5,.5-.87v-.05c0-.18-.04-.34-.12-.48s-.23-.27-.45-.4c-.22-.13-.52-.26-.88-.38-.37-.12-.85-.25-1.44-.38-.92-.21-1.77-.45-2.55-.7-.79-.25-1.47-.58-2.05-.98-.58-.4-1.04-.9-1.38-1.5-.34-.6-.5-1.34-.5-2.22v-.05c0-.8,.15-1.54,.45-2.21,.3-.67,.75-1.25,1.33-1.74,.58-.49,1.28-.87,2.1-1.14,.82-.27,1.74-.4,2.78-.4,1.47,0,2.79,.19,3.94,.58,1.16,.39,2.2,.96,3.13,1.72l-2.38,3.38c-.79-.56-1.59-.98-2.42-1.26-.83-.29-1.63-.43-2.4-.43-.57,0-1,.11-1.29,.32-.29,.21-.43,.47-.43,.79v.05c0,.2,.04,.37,.13,.51s.25,.28,.47,.41c.22,.12,.52,.25,.91,.37,.38,.12,.87,.25,1.46,.38,.98,.21,1.87,.46,2.67,.75,.79,.29,1.47,.63,2.03,1.04,.56,.41,.98,.9,1.28,1.48s.44,1.27,.44,2.07v.05c0,.88-.17,1.67-.5,2.35s-.81,1.27-1.41,1.75c-.61,.48-1.34,.85-2.19,1.1-.85,.25-1.8,.38-2.85,.38Z"/></g></g></svg>