<svg width="28" height="29" viewBox="0 0 28 29" fill="none" xmlns="http://www.w3.org/2000/svg">
<g clip-path="url(#clip0_2009_1192)">
<path d="M15.0461 3.61128C14.8496 3.21305 14.444 2.96094 14 2.96094C13.5559 2.96094 13.1503 3.21305 12.9538 3.61128L10.0031 9.58999L3.40519 10.5487C2.96572 10.6126 2.60061 10.9204 2.46338 11.3427C2.32616 11.7651 2.4406 12.2287 2.7586 12.5387L7.53289 17.1925L6.40583 23.7637C6.33076 24.2014 6.51069 24.6438 6.86996 24.9048C7.22923 25.1658 7.70554 25.2002 8.09861 24.9936L14 21.8911L19.9013 24.9936C20.2944 25.2002 20.7707 25.1658 21.1299 24.9048C21.4892 24.6438 21.6691 24.2014 21.5941 23.7637L20.467 17.1925L25.2413 12.5387C25.5593 12.2287 25.6737 11.7651 25.5365 11.3427C25.3993 10.9204 25.0342 10.6126 24.5947 10.5487L17.9968 9.58999L15.0461 3.61128Z" fill="#959595"/>
</g>
<mask id="mask0_2009_1192" style="mask-type:alpha" maskUnits="userSpaceOnUse" x="0" y="0" width="14" height="29">
<rect y="0.0449219" width="14" height="28" fill="#FFC400"/>
</mask>
<g mask="url(#mask0_2009_1192)">
<g clip-path="url(#clip1_2009_1192)">
<path d="M15.0461 3.61128C14.8496 3.21305 14.444 2.96094 14 2.96094C13.5559 2.96094 13.1503 3.21305 12.9538 3.61128L10.0031 9.58999L3.40519 10.5487C2.96572 10.6126 2.60061 10.9204 2.46338 11.3427C2.32616 11.7651 2.4406 12.2287 2.7586 12.5387L7.53289 17.1925L6.40583 23.7637C6.33076 24.2014 6.51069 24.6438 6.86996 24.9048C7.22923 25.1658 7.70554 25.2002 8.09861 24.9936L14 21.8911L19.9013 24.9936C20.2944 25.2002 20.7707 25.1658 21.1299 24.9048C21.4892 24.6438 21.6691 24.2014 21.5941 23.7637L20.467 17.1925L25.2413 12.5387C25.5593 12.2287 25.6737 11.7651 25.5365 11.3427C25.3993 10.9204 25.0342 10.6126 24.5947 10.5487L17.9968 9.58999L15.0461 3.61128Z" fill="#FAAD14"/>
</g>
</g>
<defs>
<clipPath id="clip0_2009_1192">
<rect width="23.3333" height="23.3333" fill="white" transform="translate(2.33398 2.37891)"/>
</clipPath>
<clipPath id="clip1_2009_1192">
<rect width="23.3333" height="23.3333" fill="white" transform="translate(2.33398 2.37891)"/>
</clipPath>
</defs>
</svg>
