<svg width="28" height="28" viewBox="0 0 28 28" fill="none" xmlns="http://www.w3.org/2000/svg">
<g clip-path="url(#clip0_2013_3553)">
<path d="M15.0461 3.56733C14.8496 3.16911 14.444 2.91699 14 2.91699C13.5559 2.91699 13.1503 3.16911 12.9538 3.56733L10.0031 9.54605L3.40519 10.5048C2.96572 10.5686 2.60061 10.8765 2.46338 11.2988C2.32616 11.7211 2.4406 12.1848 2.7586 12.4948L7.53289 17.1485L6.40583 23.7198C6.33076 24.1575 6.51069 24.5998 6.86996 24.8608C7.22923 25.1219 7.70554 25.1563 8.09861 24.9496L14 21.8471L19.9013 24.9496C20.2944 25.1563 20.7707 25.1219 21.1299 24.8608C21.4892 24.5998 21.6691 24.1575 21.5941 23.7198L20.467 17.1485L25.2413 12.4948C25.5593 12.1848 25.6737 11.7211 25.5365 11.2988C25.3993 10.8765 25.0342 10.5686 24.5947 10.5048L17.9968 9.54605L15.0461 3.56733Z" fill="#E8E8E8"/>
</g>
<mask id="mask0_2013_3553" style="mask-type:alpha" maskUnits="userSpaceOnUse" x="0" y="0" width="14" height="28">
<rect width="14" height="28" fill="#FFC400"/>
</mask>
<g mask="url(#mask0_2013_3553)">
<g clip-path="url(#clip1_2013_3553)">
<path d="M15.0461 3.56733C14.8496 3.16911 14.444 2.91699 14 2.91699C13.5559 2.91699 13.1503 3.16911 12.9538 3.56733L10.0031 9.54605L3.40519 10.5048C2.96572 10.5686 2.60061 10.8765 2.46338 11.2988C2.32616 11.7211 2.4406 12.1848 2.7586 12.4948L7.53289 17.1485L6.40583 23.7198C6.33076 24.1575 6.51069 24.5998 6.86996 24.8608C7.22923 25.1219 7.70554 25.1563 8.09861 24.9496L14 21.8471L19.9013 24.9496C20.2944 25.1563 20.7707 25.1219 21.1299 24.8608C21.4892 24.5998 21.6691 24.1575 21.5941 23.7198L20.467 17.1485L25.2413 12.4948C25.5593 12.1848 25.6737 11.7211 25.5365 11.2988C25.3993 10.8765 25.0342 10.5686 24.5947 10.5048L17.9968 9.54605L15.0461 3.56733Z" fill="#FAAD14"/>
</g>
</g>
<defs>
<clipPath id="clip0_2013_3553">
<rect width="23.3333" height="23.3333" fill="white" transform="translate(2.33398 2.33301)"/>
</clipPath>
<clipPath id="clip1_2013_3553">
<rect width="23.3333" height="23.3333" fill="white" transform="translate(2.33398 2.33301)"/>
</clipPath>
</defs>
</svg>
